<svg width="150" height="50" fill="none" xmlns="http://www.w3.org/2000/svg"><g clip-path="url(#clip0)"><path d="M137.668 0H11.918c-.458 0-.91 0-1.368.002-.383.003-.762.01-1.149.016-.84.01-1.676.084-2.505.221a8.331 8.331 0 0 0-2.376.784 8.047 8.047 0 0 0-3.496 3.5 8.251 8.251 0 0 0-.781 2.379c-.14.827-.214 1.664-.224 2.502-.012.384-.013.768-.019 1.151v28.893c.006.388.007.764.019 1.152.01.84.085 1.676.224 2.503.137.829.4 1.631.781 2.38.379.748.876 1.43 1.473 2.018a7.843 7.843 0 0 0 2.023 1.474c.748.38 1.55.646 2.376.788.829.136 1.666.21 2.505.221.387.008.766.013 1.149.013.457.003.91.003 1.368.003h125.75c.45 0 .906 0 1.355-.003.381 0 .772-.005 1.153-.013.838-.01 1.673-.084 2.5-.221a8.502 8.502 0 0 0 2.385-.788 7.859 7.859 0 0 0 2.022-1.474 8.013 8.013 0 0 0 1.477-2.018c.377-.75.638-1.552.773-2.38.14-.827.217-1.664.232-2.503.005-.388.005-.764.005-1.152.01-.454.01-.906.01-1.367V11.92c0-.459 0-.913-.01-1.366 0-.383 0-.767-.005-1.15a16.796 16.796 0 0 0-.232-2.503 8.247 8.247 0 0 0-.773-2.38 8.088 8.088 0 0 0-3.499-3.5 8.468 8.468 0 0 0-2.385-.783 16.309 16.309 0 0 0-2.5-.22c-.381-.007-.772-.014-1.153-.017C138.574 0 138.118 0 137.668 0z" fill="#A6A6A6"/><path d="M10.556 48.906c-.381 0-.753-.005-1.13-.013a15.863 15.863 0 0 1-2.337-.204 7.354 7.354 0 0 1-2.071-.685 6.758 6.758 0 0 1-1.746-1.27 6.652 6.652 0 0 1-1.276-1.746 7.152 7.152 0 0 1-.679-2.072 15.518 15.518 0 0 1-.208-2.343c-.008-.264-.018-1.142-.018-1.142V10.555s.01-.864.018-1.118c.01-.784.079-1.566.207-2.34.12-.723.348-1.424.68-2.077a6.717 6.717 0 0 1 1.268-1.748 6.957 6.957 0 0 1 1.753-1.278 7.279 7.279 0 0 1 2.067-.68 15.734 15.734 0 0 1 2.344-.205l1.128-.015h128.461l1.141.016c.779.009 1.555.077 2.323.203a7.414 7.414 0 0 1 2.089.685 6.995 6.995 0 0 1 3.019 3.025 7.23 7.23 0 0 1 .669 2.06c.129.78.202 1.57.217 2.36.004.354.004.734.004 1.112.009.47.009.915.009 1.365v26.161c0 .454 0 .897-.009 1.344 0 .407 0 .779-.005 1.162-.015.777-.086 1.551-.214 2.317a7.176 7.176 0 0 1-.675 2.087 6.851 6.851 0 0 1-1.269 1.733 6.775 6.775 0 0 1-1.75 1.278 7.32 7.32 0 0 1-2.085.687c-.772.126-1.553.194-2.336.204-.366.008-.75.013-1.122.013l-1.355.003-127.112-.003z" fill="#000"/><path d="M30.962 25.376a6.186 6.186 0 0 1 2.945-5.19 6.331 6.331 0 0 0-4.989-2.698c-2.099-.22-4.134 1.256-5.203 1.256-1.09 0-2.738-1.234-4.511-1.197a6.646 6.646 0 0 0-5.591 3.41c-2.418 4.185-.614 10.337 1.701 13.72 1.159 1.657 2.513 3.507 4.285 3.441 1.734-.072 2.381-1.105 4.474-1.105 2.074 0 2.681 1.105 4.489 1.064 1.86-.03 3.032-1.664 4.15-3.337a13.701 13.701 0 0 0 1.898-3.865 5.977 5.977 0 0 1-3.648-5.5zM27.547 15.263a6.09 6.09 0 0 0 1.394-4.363 6.197 6.197 0 0 0-4.01 2.075 5.798 5.798 0 0 0-1.43 4.201 5.123 5.123 0 0 0 4.046-1.913zM52.878 33.924H46.96l-1.42 4.196h-2.507l5.604-15.523h2.604l5.604 15.523h-2.548l-1.42-4.196zm-5.304-1.936h4.69l-2.312-6.809h-.065l-2.313 6.81zM68.95 32.462c0 3.517-1.883 5.776-4.723 5.776a3.836 3.836 0 0 1-3.561-1.98h-.054v5.606H58.29V26.803h2.249v1.882h.042a4.014 4.014 0 0 1 3.604-2c2.872 0 4.766 2.27 4.766 5.777zm-2.388 0c0-2.291-1.184-3.798-2.99-3.798-1.776 0-2.97 1.538-2.97 3.798 0 2.28 1.194 3.807 2.97 3.807 1.806 0 2.99-1.495 2.99-3.807zM81.406 32.462c0 3.517-1.883 5.776-4.723 5.776a3.837 3.837 0 0 1-3.561-1.98h-.054v5.606h-2.323V26.803h2.249v1.882h.042a4.014 4.014 0 0 1 3.604-2c2.872 0 4.766 2.27 4.766 5.777zm-2.388 0c0-2.291-1.184-3.798-2.99-3.798-1.776 0-2.97 1.538-2.97 3.798 0 2.28 1.194 3.807 2.97 3.807 1.806 0 2.99-1.495 2.99-3.807zM89.638 33.795c.172 1.54 1.667 2.55 3.71 2.55 1.959 0 3.367-1.01 3.367-2.399 0-1.204-.85-1.926-2.861-2.42l-2.012-.485c-2.85-.689-4.173-2.021-4.173-4.185 0-2.678 2.334-4.517 5.648-4.517 3.28 0 5.529 1.84 5.604 4.517h-2.345c-.14-1.549-1.42-2.484-3.292-2.484-1.871 0-3.152.946-3.152 2.323 0 1.098.818 1.744 2.819 2.238l1.71.42c3.185.753 4.508 2.032 4.508 4.303 0 2.904-2.313 4.723-5.992 4.723-3.443 0-5.767-1.776-5.917-4.584h2.378zM104.183 24.125v2.678h2.152v1.84h-2.152v6.238c0 .97.431 1.421 1.377 1.421.255-.004.51-.022.764-.053v1.828c-.426.08-.858.116-1.291.108-2.291 0-3.184-.861-3.184-3.056v-6.487h-1.646v-1.84h1.646v-2.677h2.334zM107.581 32.462c0-3.56 2.097-5.798 5.367-5.798 3.282 0 5.369 2.237 5.369 5.798 0 3.57-2.076 5.798-5.369 5.798-3.291 0-5.367-2.227-5.367-5.798zm8.369 0c0-2.443-1.119-3.884-3.002-3.884-1.882 0-3 1.452-3 3.884 0 2.452 1.118 3.883 3 3.883 1.883 0 3.002-1.43 3.002-3.883zM120.232 26.803h2.216v1.926h.054a2.698 2.698 0 0 1 2.722-2.045c.268 0 .535.028.796.087v2.173a3.25 3.25 0 0 0-1.044-.14 2.34 2.34 0 0 0-2.421 2.603v6.713h-2.323V26.803zM136.73 34.796c-.312 2.054-2.313 3.464-4.873 3.464-3.292 0-5.336-2.206-5.336-5.744 0-3.55 2.055-5.852 5.239-5.852 3.131 0 5.1 2.15 5.1 5.582v.796h-7.994v.14a2.951 2.951 0 0 0 3.045 3.206 2.562 2.562 0 0 0 2.613-1.592h2.206zm-7.853-3.378h5.658a2.72 2.72 0 0 0-2.775-2.872 2.863 2.863 0 0 0-2.883 2.872zM47.283 10.914a3.3 3.3 0 0 1 3.51 3.706c0 2.383-1.288 3.752-3.51 3.752h-2.694v-7.458h2.694zm-1.536 6.403h1.407a2.346 2.346 0 0 0 2.46-2.682 2.352 2.352 0 0 0-2.46-2.667h-1.407v5.35zM52.101 15.555a2.666 2.666 0 1 1 5.31 0 2.668 2.668 0 1 1-5.31 0zm4.167 0c0-1.22-.548-1.933-1.51-1.933-.966 0-1.51.713-1.51 1.933 0 1.23.544 1.938 1.51 1.938.962 0 1.51-.713 1.51-1.938zM64.467 18.372h-1.152l-1.164-4.145h-.088l-1.158 4.145h-1.142l-1.551-5.629h1.127l1.008 4.295h.083l1.157-4.295h1.066l1.157 4.295h.088l1.003-4.295h1.111l-1.545 5.63zM67.317 12.743h1.07v.894h.083a1.686 1.686 0 0 1 1.68-1.002 1.83 1.83 0 0 1 1.948 2.093v3.644h-1.111v-3.365c0-.904-.393-1.354-1.215-1.354a1.292 1.292 0 0 0-1.344 1.426v3.293h-1.11v-5.629zM73.867 10.546h1.111v7.826h-1.11v-7.826zM76.522 15.555a2.666 2.666 0 1 1 5.31 0 2.666 2.666 0 1 1-5.31 0zm4.166 0c0-1.22-.548-1.933-1.51-1.933-.965 0-1.508.713-1.508 1.933 0 1.23.543 1.938 1.508 1.938.963 0 1.51-.713 1.51-1.938zM83.001 16.78c0-1.013.754-1.597 2.093-1.68l1.525-.088v-.486c0-.594-.393-.93-1.152-.93-.62 0-1.05.228-1.173.626h-1.076c.114-.967 1.023-1.587 2.3-1.587 1.411 0 2.207.702 2.207 1.891v3.846h-1.07v-.79h-.087a1.894 1.894 0 0 1-1.69.883A1.7 1.7 0 0 1 83 16.78zm3.618-.48v-.471l-1.374.088c-.776.052-1.127.315-1.127.811 0 .507.44.802 1.044.802a1.328 1.328 0 0 0 1.457-1.23zM89.186 15.555c0-1.778.914-2.905 2.336-2.905a1.855 1.855 0 0 1 1.726.987h.083v-3.09h1.11v7.825h-1.064v-.89h-.087a1.954 1.954 0 0 1-1.768.983c-1.432 0-2.337-1.127-2.337-2.91zm1.147 0c0 1.194.563 1.913 1.504 1.913.936 0 1.515-.73 1.515-1.908 0-1.173-.585-1.912-1.515-1.912-.935 0-1.504.723-1.504 1.907zM99.038 15.555a2.668 2.668 0 0 1 4.628-2.047 2.677 2.677 0 0 1 .681 2.047 2.668 2.668 0 1 1-5.31 0zm4.166 0c0-1.22-.548-1.933-1.51-1.933-.965 0-1.509.713-1.509 1.933 0 1.23.544 1.938 1.509 1.938.962 0 1.51-.713 1.51-1.938zM105.837 12.743h1.069v.894h.083a1.688 1.688 0 0 1 1.68-1.002 1.833 1.833 0 0 1 1.885 1.282c.082.262.103.54.063.811v3.644h-1.111v-3.365c0-.904-.393-1.354-1.214-1.354a1.29 1.29 0 0 0-1.344 1.426v3.293h-1.111v-5.629zM116.894 11.342v1.427h1.22v.936h-1.22v2.894c0 .59.243.848.796.848.142 0 .283-.01.424-.026v.925c-.2.036-.402.055-.604.057-1.236 0-1.728-.434-1.728-1.52v-3.178h-.893v-.936h.893v-1.427h1.112zM119.631 10.546h1.101v3.102h.088a1.73 1.73 0 0 1 1.716-1.008 1.853 1.853 0 0 1 1.939 2.098v3.634h-1.112v-3.36c0-.899-.419-1.354-1.204-1.354a1.316 1.316 0 0 0-1.417 1.427v3.287h-1.111v-7.826zM130.952 16.852a2.285 2.285 0 0 1-2.439 1.629A2.553 2.553 0 0 1 126 16.67a2.558 2.558 0 0 1-.087-1.095 2.588 2.588 0 0 1 .626-2.063 2.593 2.593 0 0 1 1.969-.878c1.566 0 2.511 1.07 2.511 2.837v.388h-3.975v.062a1.495 1.495 0 0 0 .896 1.492c.191.082.396.123.603.12a1.352 1.352 0 0 0 1.339-.682h1.07zm-3.908-1.814h2.843a1.353 1.353 0 0 0-.833-1.354 1.358 1.358 0 0 0-.552-.104 1.442 1.442 0 0 0-1.458 1.458z" fill="#fff"/></g><defs><clipPath id="clip0"><path fill="#fff" d="M0 0h149.58v50H0z"/></clipPath></defs></svg>
